<svg xmlns:dc="http://purl.org/dc/elements/1.1/"
  xmlns:cc="http://creativecommons.org/ns#"
  xmlns:rdf="http://www.w3.org/1999/02/22-rdf-syntax-ns#"
  xmlns:svg="http://www.w3.org/2000/svg"
  xmlns="http://www.w3.org/2000/svg"
  xmlns:sodipodi="http://sodipodi.sourceforge.net/DTD/sodipodi-0.dtd"
  xmlns:inkscape="http://www.inkscape.org/namespaces/inkscape" version="1.1" id="svg2" xml:space="preserve" width="1234.5667" height="614.94" viewBox="0 0 1234.5667 614.94" sodipodi:docname="Rosatom_rus.ai">
  <metadata id="metadata8">
    <rdf:RDF>
      <cc:Work rdf:about="">
        <dc:format>image/svg+xml</dc:format>
        <dc:type rdf:resource="http://purl.org/dc/dcmitype/StillImage" />
      </cc:Work>
    </rdf:RDF>
  </metadata>
  <defs id="defs6">
    <radialGradient fx="0" fy="0" cx="0" cy="0" r="1" gradientUnits="userSpaceOnUse" gradientTransform="matrix(9.5101671,-0.0092004,-0.0061336,-9.5377684,566.5426,267.3768)" spreadMethod="pad" id="radialGradient28">
      <stop style="stop-opacity:1;stop-color:#4496d1" offset="0" id="stop24" />
      <stop style="stop-opacity:1;stop-color:#14256d" offset="1" id="stop26" />
    </radialGradient>
    <linearGradient x1="0" y1="0" x2="1" y2="0" gradientUnits="userSpaceOnUse" gradientTransform="matrix(28.449955,-11.456367,-11.456367,-28.449955,559.42169,293.75946)" spreadMethod="pad" id="linearGradient48">
      <stop style="stop-opacity:1;stop-color:#4496d1" offset="0" id="stop44" />
      <stop style="stop-opacity:1;stop-color:#14256d" offset="1" id="stop46" />
    </linearGradient>
    <linearGradient x1="0" y1="0" x2="1" y2="0" gradientUnits="userSpaceOnUse" gradientTransform="matrix(-4.3037338,30.365845,30.365845,4.3037338,547.02728,240.85832)" spreadMethod="pad" id="linearGradient68">
      <stop style="stop-opacity:1;stop-color:#4496d1" offset="0" id="stop64" />
      <stop style="stop-opacity:1;stop-color:#14256d" offset="1" id="stop66" />
    </linearGradient>
    <linearGradient x1="0" y1="0" x2="1" y2="0" gradientUnits="userSpaceOnUse" gradientTransform="matrix(-24.146006,-18.90937,-18.90937,24.146006,599.11456,256.53806)" spreadMethod="pad" id="linearGradient88">
      <stop style="stop-opacity:1;stop-color:#4496d1" offset="0" id="stop84" />
      <stop style="stop-opacity:1;stop-color:#14256d" offset="1" id="stop86" />
    </linearGradient>
    <linearGradient x1="0" y1="0" x2="1" y2="0" gradientUnits="userSpaceOnUse" gradientTransform="matrix(12.788335,19.62348,19.62348,-12.788335,548.04102,271.98138)" spreadMethod="pad" id="linearGradient108">
      <stop style="stop-opacity:1;stop-color:#4496d1" offset="0" id="stop104" />
      <stop style="stop-opacity:1;stop-color:#14256d" offset="1" id="stop106" />
    </linearGradient>
    <linearGradient x1="0" y1="0" x2="1" y2="0" gradientUnits="userSpaceOnUse" gradientTransform="matrix(-22.940727,-2.338608,-2.338608,22.940727,572.23505,243.99551)" spreadMethod="pad" id="linearGradient128">
      <stop style="stop-opacity:1;stop-color:#4496d1" offset="0" id="stop124" />
      <stop style="stop-opacity:1;stop-color:#14256d" offset="1" id="stop126" />
    </linearGradient>
    <linearGradient x1="0" y1="0" x2="1" y2="0" gradientUnits="userSpaceOnUse" gradientTransform="matrix(4.6772051,-23.608854,-23.608854,-4.6772051,587.00525,277.17935)" spreadMethod="pad" id="linearGradient148">
      <stop style="stop-opacity:1;stop-color:#4496d1" offset="0" id="stop144" />
      <stop style="stop-opacity:1;stop-color:#14256d" offset="1" id="stop146" />
    </linearGradient>
    <clipPath clipPathUnits="userSpaceOnUse" id="clipPath158">
      <path d="M 0,461.205 H 925.925 V 0 H 0 Z" id="path156" />
    </clipPath>
    <radialGradient fx="0" fy="0" cx="0" cy="0" r="1" gradientUnits="userSpaceOnUse" gradientTransform="matrix(9.8862171,-0.0095509,-0.0063907,-9.9149408,325.81741,266.2478)" spreadMethod="pad" id="radialGradient204">
      <stop style="stop-opacity:1;stop-color:#4496d1" offset="0" id="stop200" />
      <stop style="stop-opacity:1;stop-color:#14256d" offset="1" id="stop202" />
    </radialGradient>
    <linearGradient x1="0" y1="0" x2="1" y2="0" gradientUnits="userSpaceOnUse" gradientTransform="matrix(29.574965,-11.90939,-11.90939,-29.574965,318.41492,293.67371)" spreadMethod="pad" id="linearGradient224">
      <stop style="stop-opacity:1;stop-color:#4496d1" offset="0" id="stop220" />
      <stop style="stop-opacity:1;stop-color:#14256d" offset="1" id="stop222" />
    </linearGradient>
    <linearGradient x1="0" y1="0" x2="1" y2="0" gradientUnits="userSpaceOnUse" gradientTransform="matrix(-4.473918,31.566616,31.566616,4.473918,305.53036,238.68065)" spreadMethod="pad" id="linearGradient244">
      <stop style="stop-opacity:1;stop-color:#4496d1" offset="0" id="stop240" />
      <stop style="stop-opacity:1;stop-color:#14256d" offset="1" id="stop242" />
    </linearGradient>
    <linearGradient x1="0" y1="0" x2="1" y2="0" gradientUnits="userSpaceOnUse" gradientTransform="matrix(-25.100838,-19.657126,-19.657126,25.100838,359.6774,254.98042)" spreadMethod="pad" id="linearGradient264">
      <stop style="stop-opacity:1;stop-color:#4496d1" offset="0" id="stop260" />
      <stop style="stop-opacity:1;stop-color:#14256d" offset="1" id="stop262" />
    </linearGradient>
    <linearGradient x1="0" y1="0" x2="1" y2="0" gradientUnits="userSpaceOnUse" gradientTransform="matrix(13.293978,20.39938,20.39938,-13.293978,306.5842,271.03448)" spreadMethod="pad" id="linearGradient284">
      <stop style="stop-opacity:1;stop-color:#4496d1" offset="0" id="stop280" />
      <stop style="stop-opacity:1;stop-color:#14256d" offset="1" id="stop282" />
    </linearGradient>
    <linearGradient x1="0" y1="0" x2="1" y2="0" gradientUnits="userSpaceOnUse" gradientTransform="matrix(-23.847889,-2.4310853,-2.4310853,23.847889,331.73492,241.94191)" spreadMethod="pad" id="linearGradient304">
      <stop style="stop-opacity:1;stop-color:#4496d1" offset="0" id="stop300" />
      <stop style="stop-opacity:1;stop-color:#14256d" offset="1" id="stop302" />
    </linearGradient>
    <linearGradient x1="0" y1="0" x2="1" y2="0" gradientUnits="userSpaceOnUse" gradientTransform="matrix(4.8621578,-24.542427,-24.542427,-4.8621578,347.08923,276.43796)" spreadMethod="pad" id="linearGradient324">
      <stop style="stop-opacity:1;stop-color:#4496d1" offset="0" id="stop320" />
      <stop style="stop-opacity:1;stop-color:#14256d" offset="1" id="stop322" />
    </linearGradient>
    <clipPath clipPathUnits="userSpaceOnUse" id="clipPath334">
      <path d="M 0,461.205 H 925.925 V 0 H 0 Z" id="path332" />
    </clipPath>
  </defs>
  <sodipodi:namedview pagecolor="#ffffff" bordercolor="#666666" borderopacity="1" objecttolerance="10" gridtolerance="10" guidetolerance="10" inkscape:pageopacity="0" inkscape:pageshadow="2" inkscape:window-width="640" inkscape:window-height="480" id="namedview4" />
  <g id="g10" inkscape:groupmode="layer" inkscape:label="Rosatom_rus" transform="matrix(1.3333333,0,0,-1.3333333,0,614.94)">
    <g id="g12">
      <g id="g14">
        <g id="g20">
          <g id="g22">
            <path d="m 563.693,268.151 c -2.502,-2.774 -2.287,-7.062 0.479,-9.575 v 0 c 2.766,-2.512 7.038,-2.301 9.545,0.474 v 0 c 2.502,2.774 2.288,7.06 -0.478,9.572 v 0 c -1.294,1.176 -2.919,1.755 -4.538,1.755 v 0 c -1.841,0 -3.675,-0.749 -5.008,-2.226" style="fill:url(#radialGradient28);stroke:none" id="path30" />
          </g>
        </g>
      </g>
    </g>
    <g id="g32">
      <g id="g34">
        <g id="g40">
          <g id="g42">
            <path d="m 549.341,289.5 c 9.949,4.822 16.842,1.495 21.122,-2.714 v 0 c 0.57,-0.557 1.093,-1.128 1.567,-1.697 v 0 c 2.72,-3.258 3.992,-6.459 3.992,-6.459 v 0 c 1.734,-0.322 3.356,-0.411 4.868,-0.337 v 0 c 0.098,0.006 0.188,0.006 0.288,0.013 v 0 c 0.09,0.007 0.172,0.019 0.263,0.026 v 0 c 3.347,0.302 7.693,1.584 11.666,5.567 v 0 c 0.136,0.136 0.273,0.282 0.408,0.425 v 0 c -0.614,0.734 -1.248,1.458 -1.936,2.149 v 0 c -6.326,6.304 -14.596,9.456 -22.865,9.456 v 0 c -6.822,0.001 -13.641,-2.143 -19.373,-6.429" style="fill:url(#linearGradient48);stroke:none" id="path50" />
          </g>
        </g>
      </g>
    </g>
    <g id="g52">
      <g id="g54">
        <g id="g60">
          <g id="g62">
            <path d="m 537.258,272.35 c -4.192,-15.749 3.947,-31.852 18.497,-38.093 v 0 c -9.15,6.206 -9.714,13.838 -8.209,19.651 v 0 c 0.198,0.77 0.431,1.507 0.684,2.204 v 0 c 1.464,3.985 3.6,6.687 3.6,6.687 v 0 c -0.588,1.664 -1.322,3.112 -2.143,4.383 v 0 c -0.053,0.082 -0.098,0.161 -0.155,0.244 v 0 c -0.05,0.074 -0.103,0.141 -0.154,0.216 v 0 c -1.934,2.746 -5.218,5.869 -10.653,7.318 v 0 c -0.188,0.05 -0.381,0.094 -0.574,0.141 v 0 c -0.328,-0.899 -0.638,-1.81 -0.893,-2.751" style="fill:url(#linearGradient68);stroke:none" id="path70" />
          </g>
        </g>
      </g>
    </g>
    <g id="g72">
      <g id="g74">
        <g id="g80">
          <g id="g82">
            <path d="m 587.553,250.462 c -0.767,-0.213 -1.521,-0.379 -2.251,-0.509 v 0 c -4.182,-0.725 -7.59,-0.226 -7.59,-0.226 v 0 c -1.148,-1.34 -2.033,-2.701 -2.725,-4.047 v 0 c -0.043,-0.087 -0.089,-0.166 -0.134,-0.256 v 0 c -0.037,-0.082 -0.071,-0.16 -0.108,-0.241 v 0 c -1.414,-3.049 -2.475,-7.454 -1.012,-12.887 v 0 c 0.049,-0.185 0.109,-0.376 0.165,-0.566 v 0 c 0.943,0.166 1.886,0.354 2.828,0.604 v 0 c 15.735,4.243 25.613,19.343 23.74,35.064 v 0 c -0.799,-11.027 -7.125,-15.333 -12.913,-16.936" style="fill:url(#linearGradient88);stroke:none" id="path90" />
          </g>
        </g>
      </g>
    </g>
    <g id="g92">
      <g id="g94">
        <g id="g100">
          <g id="g102">
            <path d="m 549.341,289.5 c 0,0 -7.023,-4.398 -10.695,-13.228 v 0 c 0.962,-0.167 10.76,-2.142 14.41,-13.03 v 0 c 0.893,0.57 3.634,2.734 5.475,8.698 v 0 c 2.226,7.21 6.452,12.53 11.932,14.846 v 0 c 0,0 -3.737,5.327 -11.329,5.327 v 0 c -2.755,0 -6.017,-0.701 -9.793,-2.613" style="fill:url(#linearGradient108);stroke:none" id="path110" />
          </g>
        </g>
      </g>
    </g>
    <g id="g112">
      <g id="g114">
        <g id="g120">
          <g id="g122">
            <path d="m 555.755,234.257 c 0,0 7.311,-3.877 16.783,-2.649 v 0 c -0.171,0.471 -0.942,2.773 -0.943,5.981 v 0 c -10e-4,3.655 1.014,8.493 5.074,13.05 v 0 l 0.045,0.07 c -0.663,0.709 -2.983,2.453 -8.949,1.093 v 0 c -7.357,-1.678 -15.474,-1.483 -20.219,2.106 v 0 c 0,0 -5.098,-10.958 8.209,-19.651" style="fill:url(#linearGradient128);stroke:none" id="path130" />
          </g>
        </g>
      </g>
    </g>
    <g id="g132">
      <g id="g134">
        <g id="g140">
          <g id="g142">
            <path d="m 580.042,276.781 c -1.337,0 -2.755,0.136 -4.254,0.445 v 0 l -0.072,0.017 c -0.273,-1.004 -0.499,-3.849 3.553,-8.217 v 0 c 5.128,-5.532 9.019,-12.659 8.284,-18.564 v 0 c 0,0 12.041,1.065 12.913,16.936 v 0 c 0,0 -0.297,8.279 -6.104,15.871 v 0 c -1.047,-1.27 -6.02,-6.481 -14.32,-6.488" style="fill:url(#linearGradient148);stroke:none" id="path150" />
          </g>
        </g>
      </g>
    </g>
    <g id="g152">
      <g id="g154" clip-path="url(#clipPath158)">
        <g id="g160" transform="translate(615.3273,263.2643)">
          <path d="m 0,0 h 1.841 c 2.02,0 3.231,0.786 3.231,2.447 0,1.75 -1.145,2.422 -3.209,2.422 H 0 Z m 0.067,-7.877 h -3.366 v 15.71 h 5.408 c 3.95,0 6.441,-1.639 6.441,-5.252 0,-3.546 -2.558,-5.543 -6.754,-5.543 H 0.067 Z" style="fill:#414142;fill-opacity:1;fill-rule:nonzero;stroke:none" id="path162" />
        </g>
        <g id="g164" transform="translate(637.9574,263.2424)">
          <path d="m 0,0 c 0,3.568 -1.638,5.161 -4.084,5.161 -2.223,0 -3.973,-1.66 -3.973,-5.161 0,-3.501 1.818,-5.162 4.174,-5.162 C -1.594,-5.162 0,-3.523 0,0 m -11.625,0 c 0,5.273 3.209,8.124 7.541,8.124 4.847,0 7.653,-3.075 7.653,-8.124 0,-5.588 -3.255,-8.125 -7.564,-8.125 -4.556,0 -7.63,2.852 -7.63,8.125" style="fill:#414142;fill-opacity:1;fill-rule:nonzero;stroke:none" id="path166" />
        </g>
        <g id="g168" transform="translate(656.5042,256.0161)">
          <path d="m 0,0 c -0.809,-0.427 -1.953,-0.898 -4.243,-0.898 -4.802,0 -7.966,2.76 -7.966,7.923 0,5.407 3.164,8.325 8.303,8.325 1.706,0 3.12,-0.359 3.95,-0.74 l -0.741,-2.828 c -0.941,0.314 -2.019,0.471 -2.737,0.471 -3.097,0 -5.207,-1.548 -5.207,-5.027 0,-3.321 2.02,-5.005 5.184,-5.005 0.718,0 1.819,0.203 2.783,0.607 z" style="fill:#414142;fill-opacity:1;fill-rule:nonzero;stroke:none" id="path170" />
        </g>
        <g id="g172" transform="translate(662.7722,261.4237)">
          <path d="M 0,0 H 5.41 L 2.783,7.383 H 2.694 Z M 6.06,-1.84 H -0.651 L -2.176,-6.036 H -4.218 L 1.774,9.673 H 3.793 L 9.673,-6.036 H 7.564 Z" style="fill:#414142;fill-opacity:1;fill-rule:nonzero;stroke:none" id="path174" />
        </g>
        <g id="g176" transform="translate(679.4555,255.3876)">
          <path d="m 0,0 h -2.019 v 13.825 h -4.647 v 1.884 H 4.646 V 13.825 H 0 Z" style="fill:#414142;fill-opacity:1;fill-rule:nonzero;stroke:none" id="path178" />
        </g>
        <g id="g180" transform="translate(698.3152,263.2424)">
          <path d="m 0,0 c 0,4.309 -1.93,6.194 -5.029,6.194 -2.758,0 -4.89,-1.998 -4.89,-6.194 0,-4.129 2.063,-6.194 5.161,-6.194 C -1.818,-6.194 0,-4.062 0,0 m -12.076,0 c 0,5.026 2.896,8.078 7.047,8.078 4.669,0 7.182,-3.32 7.182,-8.078 0,-5.341 -3.006,-8.079 -7.113,-8.079 -4.353,0 -7.116,3.096 -7.116,8.079" style="fill:#414142;fill-opacity:1;fill-rule:nonzero;stroke:none" id="path182" />
        </g>
        <g id="g184" transform="translate(719.9807,255.3876)">
          <path d="M 0,0 H -2.02 L -2.984,12.276 -6.957,0 H -9.068 L -13.017,12.232 -14.005,0 h -2.017 l 1.344,15.709 h 2.469 l 4.241,-13.51 4.153,13.51 h 2.47 z" style="fill:#414142;fill-opacity:1;fill-rule:nonzero;stroke:none" id="path186" />
        </g>
      </g>
    </g>
    <g id="g188">
      <g id="g190">
        <g id="g196">
          <g id="g198">
            <path d="m 322.855,267.052 c -2.601,-2.884 -2.378,-7.341 0.499,-9.953 v 0 c 2.874,-2.611 7.316,-2.392 9.921,0.492 v 0 c 2.601,2.884 2.379,7.34 -0.496,9.952 v 0 c -1.346,1.222 -3.034,1.824 -4.717,1.824 v 0 c -1.914,0 -3.821,-0.78 -5.207,-2.315" style="fill:url(#radialGradient204);stroke:none" id="path206" />
          </g>
        </g>
      </g>
    </g>
    <g id="g208">
      <g id="g210">
        <g id="g216">
          <g id="g218">
            <path d="m 307.935,289.246 c 10.343,5.013 17.509,1.555 21.958,-2.822 v 0 c 0.591,-0.579 1.135,-1.172 1.629,-1.763 v 0 c 2.827,-3.388 4.149,-6.715 4.149,-6.715 v 0 c 1.804,-0.335 3.489,-0.427 5.061,-0.35 v 0 c 0.102,0.006 0.195,0.006 0.3,0.013 v 0 c 0.093,0.008 0.179,0.019 0.273,0.027 v 0 c 3.479,0.314 7.997,1.647 12.127,5.787 v 0 c 0.142,0.142 0.284,0.293 0.425,0.442 v 0 c -0.638,0.763 -1.298,1.516 -2.014,2.234 v 0 c -6.575,6.554 -15.172,9.83 -23.768,9.83 v 0 c -7.091,0.001 -14.181,-2.228 -20.14,-6.683" style="fill:url(#linearGradient224);stroke:none" id="path226" />
          </g>
        </g>
      </g>
    </g>
    <g id="g228">
      <g id="g230">
        <g id="g236">
          <g id="g238">
            <path d="m 295.375,271.417 c -4.357,-16.371 4.103,-33.111 19.228,-39.598 v 0 c -9.511,6.451 -10.099,14.385 -8.534,20.428 v 0 c 0.206,0.8 0.448,1.566 0.712,2.291 v 0 c 1.521,4.142 3.742,6.951 3.742,6.951 v 0 c -0.612,1.73 -1.375,3.235 -2.228,4.556 v 0 c -0.055,0.085 -0.102,0.168 -0.161,0.254 v 0 c -0.052,0.077 -0.106,0.147 -0.159,0.224 v 0 c -2.012,2.855 -5.426,6.101 -11.076,7.608 v 0 c -0.194,0.052 -0.395,0.098 -0.595,0.147 v 0 c -0.342,-0.935 -0.664,-1.882 -0.929,-2.861" style="fill:url(#linearGradient244);stroke:none" id="path246" />
          </g>
        </g>
      </g>
    </g>
    <g id="g248">
      <g id="g250">
        <g id="g256">
          <g id="g258">
            <path d="m 347.659,248.665 c -0.797,-0.223 -1.581,-0.395 -2.34,-0.53 v 0 c -4.348,-0.754 -7.89,-0.235 -7.89,-0.235 v 0 c -1.193,-1.394 -2.114,-2.808 -2.834,-4.207 v 0 c -0.043,-0.091 -0.092,-0.173 -0.138,-0.266 v 0 c -0.04,-0.085 -0.074,-0.166 -0.113,-0.251 v 0 c -1.469,-3.169 -2.573,-7.749 -1.052,-13.395 v 0 c 0.051,-0.194 0.113,-0.393 0.172,-0.59 v 0 c 0.98,0.172 1.961,0.368 2.94,0.628 v 0 c 16.356,4.41 26.625,20.108 24.678,36.451 v 0 c -0.83,-11.463 -7.406,-15.939 -13.423,-17.605" style="fill:url(#linearGradient264);stroke:none" id="path266" />
          </g>
        </g>
      </g>
    </g>
    <g id="g268">
      <g id="g270">
        <g id="g276">
          <g id="g278">
            <path d="m 307.935,289.246 c 0,0 -7.301,-4.572 -11.117,-13.752 v 0 c 1.001,-0.173 11.185,-2.226 14.98,-13.545 v 0 c 0.928,0.593 3.776,2.843 5.69,9.043 v 0 c 2.314,7.495 6.708,13.025 12.405,15.432 v 0 c 0,0 -3.886,5.537 -11.778,5.538 v 0 c -2.864,0 -6.254,-0.729 -10.18,-2.716" style="fill:url(#linearGradient284);stroke:none" id="path286" />
          </g>
        </g>
      </g>
    </g>
    <g id="g288">
      <g id="g290">
        <g id="g296">
          <g id="g298">
            <path d="m 314.603,231.819 c 0,0 7.601,-4.031 17.447,-2.755 v 0 c -0.179,0.491 -0.979,2.883 -0.98,6.218 v 0 c -10e-4,3.799 1.053,8.829 5.274,13.566 v 0 l 0.046,0.073 c -0.688,0.736 -3.099,2.55 -9.302,1.137 v 0 c -7.647,-1.744 -16.086,-1.543 -21.019,2.189 v 0 c 0,0 -5.299,-11.393 8.534,-20.428" style="fill:url(#linearGradient304);stroke:none" id="path306" />
          </g>
        </g>
      </g>
    </g>
    <g id="g308">
      <g id="g310">
        <g id="g316">
          <g id="g318">
            <path d="m 339.851,276.024 c -1.39,0 -2.864,0.14 -4.423,0.462 v 0 l -0.074,0.018 c -0.284,-1.044 -0.519,-4.001 3.693,-8.542 v 0 c 5.332,-5.752 9.375,-13.159 8.612,-19.297 v 0 c 0,0 12.517,1.107 13.423,17.605 v 0 c 0,0 -0.309,8.606 -6.345,16.498 v 0 c -1.088,-1.32 -6.259,-6.737 -14.886,-6.744" style="fill:url(#linearGradient324);stroke:none" id="path326" />
          </g>
        </g>
      </g>
    </g>
    <g id="g328">
      <g id="g330" clip-path="url(#clipPath334)">
        <g id="g336" transform="translate(300.2934,214.5033)">
          <path d="m 0,0 h 0.998 c 1.095,0 1.751,0.426 1.751,1.326 0,0.949 -0.62,1.313 -1.739,1.313 l -1.01,0 z m 0.036,-4.269 h -1.824 v 8.515 h 2.931 c 2.141,0 3.492,-0.888 3.492,-2.847 0,-1.922 -1.387,-3.005 -3.662,-3.005 H 0.036 Z" style="fill:#414142;fill-opacity:1;fill-rule:nonzero;stroke:none" id="path338" />
        </g>
        <g id="g340" transform="translate(312.5596,214.4914)">
          <path d="m 0,0 c 0,1.934 -0.888,2.797 -2.214,2.797 -1.204,0 -2.153,-0.899 -2.153,-2.797 0,-1.898 0.985,-2.798 2.262,-2.798 C -0.864,-2.798 0,-1.91 0,0 m -6.301,0 c 0,2.858 1.739,4.404 4.087,4.404 2.628,0 4.149,-1.668 4.149,-4.404 0,-3.029 -1.765,-4.404 -4.1,-4.404 -2.47,0 -4.136,1.546 -4.136,4.404" style="fill:#414142;fill-opacity:1;fill-rule:nonzero;stroke:none" id="path342" />
        </g>
        <g id="g344" transform="translate(322.6125,210.5746)">
          <path d="m 0,0 c -0.438,-0.232 -1.059,-0.487 -2.3,-0.487 -2.602,0 -4.317,1.496 -4.317,4.295 0,2.931 1.715,4.512 4.5,4.512 0.925,0 1.691,-0.195 2.141,-0.401 L -0.378,6.386 c -0.51,0.17 -1.094,0.255 -1.483,0.255 -1.679,0 -2.823,-0.839 -2.823,-2.724 0,-1.801 1.095,-2.713 2.81,-2.713 0.39,0 0.986,0.11 1.509,0.329 z" style="fill:#414142;fill-opacity:1;fill-rule:nonzero;stroke:none" id="path346" />
        </g>
        <g id="g348" transform="translate(326.01,213.5057)">
          <path d="M 0,0 H 2.932 L 1.508,4.002 H 1.46 Z M 3.285,-0.997 H -0.353 L -1.18,-3.272 H -2.287 L 0.961,5.243 H 2.056 L 5.243,-3.272 H 4.1 Z" style="fill:#414142;fill-opacity:1;fill-rule:nonzero;stroke:none" id="path350" />
        </g>
        <g id="g352" transform="translate(335.0528,210.2339)">
          <path d="M 0,0 H -1.094 V 7.493 H -3.613 V 8.515 H 2.518 V 7.493 H 0 Z" style="fill:#414142;fill-opacity:1;fill-rule:nonzero;stroke:none" id="path354" />
        </g>
        <g id="g356" transform="translate(345.2753,214.4914)">
          <path d="m 0,0 c 0,2.335 -1.046,3.357 -2.726,3.357 -1.495,0 -2.65,-1.082 -2.65,-3.357 0,-2.238 1.118,-3.357 2.797,-3.357 C -0.985,-3.357 0,-2.202 0,0 m -6.546,0 c 0,2.725 1.57,4.379 3.82,4.379 2.531,0 3.893,-1.8 3.893,-4.379 0,-2.895 -1.629,-4.379 -3.855,-4.379 -2.36,0 -3.858,1.678 -3.858,4.379" style="fill:#414142;fill-opacity:1;fill-rule:nonzero;stroke:none" id="path358" />
        </g>
        <g id="g360" transform="translate(357.0186,210.2339)">
          <path d="M 0,0 H -1.095 L -1.618,6.654 -3.771,0 H -4.915 L -7.055,6.63 -7.591,0 h -1.094 l 0.729,8.515 h 1.339 l 2.298,-7.323 2.251,7.323 h 1.339 z" style="fill:#414142;fill-opacity:1;fill-rule:nonzero;stroke:none" id="path362" />
        </g>
      </g>
    </g>
  </g>
</svg>
