<svg width="260" height="96" xmlns="http://www.w3.org/2000/svg" xmlns:undefined="http://sodipodi.sourceforge.net/DTD/sodipodi-0.dtd" xml:space="preserve" version="1.1">
 <metadata id="metadata8">image/svg+xml</metadata>
 <defs id="defs6">
  <clipPath id="clipPath158" clipPathUnits="userSpaceOnUse">
   <path id="path156" d="m-532.40816,622.32036l925.925,0l0,-461.205l-925.925,0l0,461.205z"/>
  </clipPath>
  <clipPath id="clipPath334" clipPathUnits="userSpaceOnUse">
   <path id="path332" d="m-219.98194,614.82036l925.925,0l0,-461.205l-925.925,0l0,461.205z"/>
  </clipPath>
  <radialGradient id="radialGradient28" spreadMethod="pad" gradientTransform="matrix(9.510167121887207,-0.009200400672852993,-0.006133598741143942,-9.537768363952637,34.13437557220459,428.4921884536743)" gradientUnits="userSpaceOnUse" r="1" cy="0" cx="0" fy="0" fx="0">
   <stop stop-color="#4496d1" id="stop24" offset="0"/>
   <stop stop-color="#14256d" id="stop26" offset="1"/>
  </radialGradient>
  <linearGradient id="linearGradient48" spreadMethod="pad" y2="0.22845" x2="0.87225" y1="0.87715" x1="0.2282">
   <stop stop-color="#4496d1" id="stop44" offset="0"/>
   <stop stop-color="#14256d" id="stop46" offset="1"/>
  </linearGradient>
  <linearGradient id="linearGradient68" spreadMethod="pad" y2="0.90508" x2="0.33502" y1="0.16162" x1="0.55464">
   <stop stop-color="#4496d1" id="stop64" offset="0"/>
   <stop stop-color="#14256d" id="stop66" offset="1"/>
  </linearGradient>
  <linearGradient id="linearGradient88" spreadMethod="pad" y2="0.16538" x2="0.07005" y1="0.69553" x1="0.94294">
   <stop stop-color="#4496d1" id="stop84" offset="0"/>
   <stop stop-color="#14256d" id="stop86" offset="1"/>
  </linearGradient>
  <linearGradient id="linearGradient108" spreadMethod="pad" y2="0.9824" x2="0.69722" y1="0.3027" x1="0.29528">
   <stop stop-color="#4496d1" id="stop104" offset="0"/>
   <stop stop-color="#14256d" id="stop106" offset="1"/>
  </linearGradient>
  <linearGradient id="linearGradient128" spreadMethod="pad" y2="0.45648" x2="0.08988" y1="0.56023" x1="0.85133">
   <stop stop-color="#4496d1" id="stop124" offset="0"/>
   <stop stop-color="#14256d" id="stop126" offset="1"/>
  </linearGradient>
  <linearGradient id="linearGradient148" spreadMethod="pad" y2="0.09475" x2="0.64696" y1="0.81438" x1="0.45897">
   <stop stop-color="#4496d1" id="stop144" offset="0"/>
   <stop stop-color="#14256d" id="stop146" offset="1"/>
  </linearGradient>
 </defs>
 <g>
  <title>Layer 1</title>
  <g id="svg_1">
   <g transform="matrix(1.33333 0 0 -1.33333 0 614.94)" id="g12">
    <g id="g14">
     <g id="g20">
      <g id="g22">
       <path fill="url(#radialGradient28)" id="path30" d="m31.28484,429.26636c-2.502,-2.774 -2.287,-7.062 0.479,-9.575l0,0c2.766,-2.512 7.038,-2.301 9.545,0.474l0,0c2.502,2.774 2.288,7.06 -0.478,9.572l0,0c-1.294,1.176 -2.919,1.755 -4.538,1.755l0,0c-1.841,0 -3.675,-0.749 -5.008,-2.226"/>
      </g>
     </g>
    </g>
   </g>
   <g transform="matrix(1.33333 0 0 -1.33333 0 614.94)" id="g32">
    <g id="g34">
     <g id="g40">
      <g id="g42">
       <path fill="url(#linearGradient48)" id="path50" d="m16.93284,450.61536c9.949,4.822 16.842,1.495 21.122,-2.714l0,0c0.57,-0.557 1.093,-1.128 1.567,-1.697l0,0c2.72,-3.258 3.992,-6.459 3.992,-6.459l0,0c1.734,-0.322 3.356,-0.411 4.868,-0.337l0,0c0.098,0.006 0.188,0.006 0.288,0.013l0,0c0.09,0.007 0.172,0.019 0.263,0.026l0,0c3.347,0.302 7.693,1.584 11.666,5.567l0,0c0.136,0.136 0.273,0.282 0.408,0.425l0,0c-0.614,0.734 -1.248,1.458 -1.936,2.149l0,0c-6.326,6.304 -14.596,9.456 -22.865,9.456l0,0c-6.822,0.001 -13.641,-2.143 -19.373,-6.429"/>
      </g>
     </g>
    </g>
   </g>
   <g transform="matrix(1.33333 0 0 -1.33333 0 614.94)" id="g52">
    <g id="g54">
     <g id="g60">
      <g id="g62">
       <path fill="url(#linearGradient68)" id="path70" d="m4.84984,433.46536c-4.192,-15.749 3.947,-31.852 18.497,-38.093l0,0c-9.15,6.206 -9.714,13.838 -8.209,19.651l0,0c0.198,0.77 0.431,1.507 0.684,2.204l0,0c1.464,3.985 3.6,6.687 3.6,6.687l0,0c-0.588,1.664 -1.322,3.112 -2.143,4.383l0,0c-0.053,0.082 -0.098,0.161 -0.155,0.244l0,0c-0.05,0.074 -0.103,0.141 -0.154,0.216l0,0c-1.934,2.746 -5.218,5.869 -10.653,7.318l0,0c-0.188,0.05 -0.381,0.094 -0.574,0.141l0,0c-0.328,-0.899 -0.638,-1.81 -0.893,-2.751"/>
      </g>
     </g>
    </g>
   </g>
   <g transform="matrix(1.33333 0 0 -1.33333 0 614.94)" id="g72">
    <g id="g74">
     <g id="g80">
      <g id="g82">
       <path fill="url(#linearGradient88)" id="path90" d="m55.14484,411.57736c-0.767,-0.213 -1.521,-0.379 -2.251,-0.509l0,0c-4.182,-0.725 -7.59,-0.226 -7.59,-0.226l0,0c-1.148,-1.34 -2.033,-2.701 -2.725,-4.047l0,0c-0.043,-0.087 -0.089,-0.166 -0.134,-0.256l0,0c-0.037,-0.082 -0.071,-0.16 -0.108,-0.241l0,0c-1.414,-3.049 -2.475,-7.454 -1.012,-12.887l0,0c0.049,-0.185 0.109,-0.376 0.165,-0.566l0,0c0.943,0.166 1.886,0.354 2.828,0.604l0,0c15.735,4.243 25.613,19.343 23.74,35.064l0,0c-0.799,-11.027 -7.125,-15.333 -12.913,-16.936"/>
      </g>
     </g>
    </g>
   </g>
   <g transform="matrix(1.33333 0 0 -1.33333 0 614.94)" id="g92">
    <g id="g94">
     <g id="g100">
      <g id="g102">
       <path fill="url(#linearGradient108)" id="path110" d="m16.93284,450.61536c0,0 -7.023,-4.398 -10.695,-13.228l0,0c0.962,-0.167 10.76,-2.142 14.41,-13.03l0,0c0.893,0.57 3.634,2.734 5.475,8.698l0,0c2.226,7.21 6.452,12.53 11.932,14.846l0,0c0,0 -3.737,5.327 -11.329,5.327l0,0c-2.755,0 -6.017,-0.701 -9.793,-2.613"/>
      </g>
     </g>
    </g>
   </g>
   <g transform="matrix(1.33333 0 0 -1.33333 0 614.94)" id="g112">
    <g id="g114">
     <g id="g120">
      <g id="g122">
       <path fill="url(#linearGradient128)" id="path130" d="m23.34684,395.37236c0,0 7.311,-3.877 16.783,-2.649l0,0c-0.171,0.471 -0.942,2.773 -0.943,5.981l0,0c-0.001,3.655 1.014,8.493 5.074,13.05l0,0l0.045,0.07c-0.663,0.709 -2.983,2.453 -8.949,1.093l0,0c-7.357,-1.678 -15.474,-1.483 -20.219,2.106l0,0c0,0 -5.098,-10.958 8.209,-19.651"/>
      </g>
     </g>
    </g>
   </g>
   <g transform="matrix(1.33333 0 0 -1.33333 0 614.94)" id="g132">
    <g id="g134">
     <g id="g140">
      <g id="g142">
       <path fill="url(#linearGradient148)" id="path150" d="m47.63384,437.89636c-1.337,0 -2.755,0.136 -4.254,0.445l0,0l-0.072,0.017c-0.273,-1.004 -0.499,-3.849 3.553,-8.217l0,0c5.128,-5.532 9.019,-12.659 8.284,-18.564l0,0c0,0 12.041,1.065 12.913,16.936l0,0c0,0 -0.297,8.279 -6.104,15.871l0,0c-1.047,-1.27 -6.02,-6.481 -14.32,-6.488"/>
      </g>
     </g>
    </g>
   </g>
   <g transform="matrix(1.33333 0 0 -1.33333 0 614.94)" id="g152">
    <g clip-path="url(#clipPath158)" id="g154">
     <g id="g160">
      <path fill="#414142" fill-rule="nonzero" id="path162" d="m82.91911,424.37968l1.841,0c2.02,0 3.231,0.786 3.231,2.447c0,1.75 -1.145,2.422 -3.209,2.422l-1.863,0l0,-4.869zm0.067,-7.877l-3.366,0l0,15.71l5.408,0c3.95,0 6.441,-1.639 6.441,-5.252c0,-3.546 -2.558,-5.543 -6.754,-5.543l-1.729,0l0,-4.915z"/>
     </g>
     <g id="g164">
      <path fill="#414142" fill-rule="nonzero" id="path166" d="m105.54923,424.35777c0,3.568 -1.638,5.161 -4.084,5.161c-2.223,0 -3.973,-1.66 -3.973,-5.161c0,-3.501 1.818,-5.162 4.174,-5.162c2.289,0 3.883,1.639 3.883,5.162m-11.625,0c0,5.273 3.209,8.124 7.541,8.124c4.847,0 7.653,-3.075 7.653,-8.124c0,-5.588 -3.255,-8.125 -7.564,-8.125c-4.556,0 -7.63,2.852 -7.63,8.125"/>
     </g>
     <g id="g168">
      <path fill="#414142" fill-rule="nonzero" id="path170" d="m124.09605,417.13148c-0.809,-0.427 -1.953,-0.898 -4.243,-0.898c-4.802,0 -7.966,2.76 -7.966,7.923c0,5.407 3.164,8.325 8.303,8.325c1.706,0 3.12,-0.359 3.95,-0.74l-0.741,-2.828c-0.941,0.314 -2.019,0.471 -2.737,0.471c-3.097,0 -5.207,-1.548 -5.207,-5.027c0,-3.321 2.02,-5.005 5.184,-5.005c0.718,0 1.819,0.203 2.783,0.607l0.674,-2.828z"/>
     </g>
     <g id="g172">
      <path fill="#414142" fill-rule="nonzero" id="path174" d="m130.36405,422.53907l5.41,0l-2.627,7.383l-0.089,0l-2.694,-7.383zm6.06,-1.84l-6.711,0l-1.525,-4.196l-2.042,0l5.992,15.709l2.019,0l5.88,-15.709l-2.109,0l-1.504,4.196z"/>
     </g>
     <g id="g176">
      <path fill="#414142" fill-rule="nonzero" id="path178" d="m147.04734,416.50297l-2.019,0l0,13.825l-4.647,0l0,1.884l11.312,0l0,-1.884l-4.646,0l0,-13.825z"/>
     </g>
     <g id="g180">
      <path fill="#414142" fill-rule="nonzero" id="path182" d="m165.90702,424.35777c0,4.309 -1.93,6.194 -5.029,6.194c-2.758,0 -4.89,-1.998 -4.89,-6.194c0,-4.129 2.063,-6.194 5.161,-6.194c2.94,0 4.758,2.132 4.758,6.194m-12.076,0c0,5.026 2.896,8.078 7.047,8.078c4.669,0 7.182,-3.32 7.182,-8.078c0,-5.341 -3.006,-8.079 -7.113,-8.079c-4.353,0 -7.116,3.096 -7.116,8.079"/>
     </g>
     <g id="g184">
      <path fill="#414142" fill-rule="nonzero" id="path186" d="m187.57255,416.50297l-2.02,0l-0.964,12.276l-3.973,-12.276l-2.111,0l-3.949,12.232l-0.988,-12.232l-2.017,0l1.344,15.709l2.469,0l4.241,-13.51l4.153,13.51l2.47,0l1.345,-15.709z"/>
     </g>
    </g>
   </g>
  </g>
 </g>
</svg>